# xmcd
#
# Track frame offsets:
# 150
# 6020
# 25810
# 26629
#
# Disc length: 364 seconds
#
# Revision: 0
# Processed by: cddbd v1.5.1PL0 Copyright (c) Steve Scherf et al.
# Submitted via: Audion 3.0.2 (http://www.panic.com/audion/)
#
DISCID=22016a04
DTITLE=Matthias Zimmermann - MyStruggle
DYEAR=1900
DGENRE=
TTITLE0=Cue 1M11
TTITLE1=Cue 1M 12
TTITLE2=Cue 1M1 A
TTITLE3=Cue 1M1 B
EXTD=
EXTT0=
EXTT1=
EXTT2=
EXTT3=
PLAYORDER=
